# xmcd
#
# Track frame offsets:
#       150
#       11362
#       22345
#       32545
#       45231
#       57287
#       68995
#       82018
#       91009
#       100431
#       110705
#       122033
#
# Disc length: 1781 seconds
#
# Revision: 1
# Processed by: cddbd v1.5.2PL0 Copyright (c) Steve Scherf et al.
# Submitted via: WaveLab 6.11
#
DISCID=9706f30c
DTITLE=Chris Kenner - Land of 1000 Dances
DYEAR=2007
DGENRE=New Orleans R&B
TTITLE0=Land Of 1000 Dances
TTITLE1=Come Back And See
TTITLE2=How Far
TTITLE3=Time
TTITLE4=Come And See About Me
TTITLE5=Packing Up
TTITLE6=Something You Got
TTITLE7=I Like It Like That - Part 1
TTITLE8=I Like It Like That - Part 2
TTITLE9=Go Thru Life
TTITLE10=A Very True Story
TTITLE11=That's My Girl
EXTD=
EXTT0=
EXTT1=
EXTT2=
EXTT3=
EXTT4=
EXTT5=
EXTT6=
EXTT7=
EXTT8=
EXTT9=
EXTT10=
EXTT11=
PLAYORDER=
